<?xml version="1.0" encoding="UTF-8"?>
<!DOCTYPE svg PUBLIC "-//W3C//DTD SVG 1.1//EN" "http://www.w3.org/Graphics/SVG/1.1/DTD/svg11.dtd">
<svg xmlns="http://www.w3.org/2000/svg" version="1.1" width="500px" height="500px" style="shape-rendering:geometricPrecision; text-rendering:geometricPrecision; image-rendering:optimizeQuality; fill-rule:evenodd; clip-rule:evenodd" xmlns:xlink="http://www.w3.org/1999/xlink">
<g><path style="opacity:0.965" fill="#b8f14d" d="M 381.5,56.5 C 410.798,56.6302 424.964,71.2968 424,100.5C 417.855,123.167 403.022,133.334 379.5,131C 374.098,130.048 369.265,127.882 365,124.5C 344.833,144.667 324.667,164.833 304.5,185C 301.224,183.763 298.391,181.597 296,178.5C 295.333,177.833 295.333,177.167 296,176.5C 316.167,156.333 336.333,136.167 356.5,116C 348.22,103.015 347.386,89.5151 354,75.5C 360.41,65.0549 369.577,58.7215 381.5,56.5 Z"/></g>
<g><path style="opacity:0.961" fill="#b7f14c" d="M 229.5,83.5 C 249.463,84.41 256.296,94.41 250,113.5C 247.386,117.301 243.886,119.634 239.5,120.5C 239.5,131.833 239.5,143.167 239.5,154.5C 235.5,154.5 231.5,154.5 227.5,154.5C 227.832,143.147 227.499,131.814 226.5,120.5C 214.291,113.699 211.458,104.032 218,91.5C 221.15,87.6893 224.983,85.0226 229.5,83.5 Z"/></g>
<g><path style="opacity:0.977" fill="#b8f14c" d="M 106.5,90.5 C 133.541,88.7168 148.541,101.217 151.5,128C 151.737,136.183 149.404,143.516 144.5,150C 153.363,159.197 162.53,168.031 172,176.5C 170.763,179.776 168.597,182.609 165.5,185C 164.833,185.667 164.167,185.667 163.5,185C 154.652,175.986 145.652,167.152 136.5,158.5C 115.166,170.133 96.9996,166.467 82,147.5C 72.9993,129.511 75.4993,113.345 89.5,99C 94.7119,95.0607 100.379,92.2273 106.5,90.5 Z"/></g>
<g><path style="opacity:0.972" fill="#b8f14d" d="M 223.5,164.5 C 267.259,162.615 297.092,181.948 313,222.5C 320.071,247.398 316.737,270.732 303,292.5C 301.021,284.981 299.354,277.314 298,269.5C 294.889,256.385 286.722,248.885 273.5,247C 247.167,246.333 220.833,246.333 194.5,247C 182.115,248.713 173.948,255.547 170,267.5C 168.482,275.926 166.649,284.259 164.5,292.5C 145.281,260.371 146.114,228.704 167,197.5C 181.553,179.101 200.387,168.101 223.5,164.5 Z M 226.5,176.5 C 244.112,174.552 256.612,181.552 264,197.5C 268.825,217.687 261.658,231.52 242.5,239C 223.399,242.7 210.232,235.533 203,217.5C 199.495,197.163 207.328,183.496 226.5,176.5 Z"/></g>
<g><path style="opacity:0.969" fill="#b8f14c" d="M 230.5,185.5 C 246.07,185.406 254.737,193.072 256.5,208.5C 252.507,227.666 241.174,234.166 222.5,228C 210.976,219.369 208.476,208.536 215,195.5C 218.9,189.98 224.067,186.647 230.5,185.5 Z"/></g>
<g><path style="opacity:0.968" fill="#b8f14c" d="M 396.5,221.5 C 419.499,220.665 429.999,231.665 428,254.5C 423.784,266.122 415.451,272.455 403,273.5C 390.217,272.863 381.717,266.53 377.5,254.5C 360.513,253.501 343.513,253.167 326.5,253.5C 326.5,249.5 326.5,245.5 326.5,241.5C 343.513,241.833 360.513,241.499 377.5,240.5C 380.91,231.09 387.243,224.757 396.5,221.5 Z"/></g>
<g><path style="opacity:0.96" fill="#b8f14c" d="M 83.5,228.5 C 94.5361,226.685 102.536,230.685 107.5,240.5C 118.814,241.499 130.147,241.832 141.5,241.5C 141.5,245.5 141.5,249.5 141.5,253.5C 130.162,253.333 118.828,253.5 107.5,254C 101.87,264.814 93.2038,268.481 81.5,265C 70.2275,258.186 67.3941,248.686 73,236.5C 75.8552,232.789 79.3552,230.123 83.5,228.5 Z"/></g>
<g><path style="opacity:0.98" fill="#b8f14c" d="M 191.5,256.5 C 219.835,256.333 248.169,256.5 276.5,257C 281.598,258.433 285.098,261.6 287,266.5C 290.244,279.05 292.577,291.717 294,304.5C 266.538,330.659 235.038,336.825 199.5,323C 190.044,318.525 181.544,312.692 174,305.5C 174.699,292.664 176.699,279.997 180,267.5C 182.437,262.226 186.271,258.56 191.5,256.5 Z"/></g>
<g><path style="opacity:0.967" fill="#b8f14d" d="M 163.5,308.5 C 166.631,311.129 169.631,313.962 172.5,317C 164.833,324.667 157.167,332.333 149.5,340C 155.449,351.578 154.282,362.412 146,372.5C 135.121,380.837 123.621,381.67 111.5,375C 102.963,367.723 99.7962,358.556 102,347.5C 105.813,335.368 114.146,328.701 127,327.5C 131.985,327.828 136.652,329.161 141,331.5C 148.702,323.965 156.202,316.298 163.5,308.5 Z"/></g>
<g><path style="opacity:0.95" fill="#b8f14d" d="M 302.5,308.5 C 323.249,327.747 343.582,347.58 363.5,368C 372.696,365.174 380.863,367.007 388,373.5C 394.698,383.947 393.532,393.447 384.5,402C 367.677,409.089 357.343,403.756 353.5,386C 354.422,382.834 354.922,379.667 355,376.5C 335.333,356.833 315.667,337.167 296,317.5C 295.333,316.833 295.333,316.167 296,315.5C 298.372,313.297 300.539,310.963 302.5,308.5 Z"/></g>
<g><path style="opacity:0.971" fill="#b7f14c" d="M 227.5,339.5 C 231.5,339.5 235.5,339.5 239.5,339.5C 239.5,356.833 239.5,374.167 239.5,391.5C 249.625,393.455 256.125,399.455 259,409.5C 260.546,434.288 249.046,444.788 224.5,441C 210.299,434.079 205.132,422.913 209,407.5C 212.603,399.055 218.77,393.721 227.5,391.5C 227.5,374.167 227.5,356.833 227.5,339.5 Z"/></g>
</svg>
